<?xml version="1.0" encoding="utf-8"?>
<!-- Generator: Adobe Illustrator 28.1.0, SVG Export Plug-In . SVG Version: 6.00 Build 0)  -->
<svg version="1.1" xmlns="http://www.w3.org/2000/svg" xmlns:xlink="http://www.w3.org/1999/xlink" x="0px" y="0px"
	 viewBox="0 0 167.4 151.9" style="enable-background:new 0 0 167.4 151.9;" xml:space="preserve">
<style type="text/css">
	.st0{fill:#FFFFFF;}
</style>
<g id="Layer_1">
	<g>
		<path class="st0" d="M148.3,53.7c-10.7,2-17.3,13.1-17.3,13.1s-9,13.6-12.7,13.6c-2.8,0-3.1-4-3.1-6.7c0-4.2,0.1-9.8,1.1-11.9
			c0.2-0.4,1.2-1.8,1.2-2.6c0-0.3-0.2-0.5-0.7-0.5c-1.1,0-3.2,0.8-3.8,1.4c-0.5,0.5-0.9,7.1-1.3,8.4c-0.8,3.8-3.2,11.5-7.6,11.5
			c-3,0-4.4-3.6-4.4-8.4c0-9.9,5.6-25.1,13.6-25.1c2.6,0,3.7,1.6,3.7,3.6c0,2.8-2.2,6.4-5.7,7.2c-0.2,0.3-0.3,0.5-0.3,0.6
			c0,0.2,0.2,0.3,0.7,0.3c4.5-1.1,6.5-4.6,6.5-7.6c0-2.6-1.5-4.9-4.4-4.9c-9,0-15.3,10.8-17,20.4l-0.2,0.7C95,72.5,92.8,80,89,80
			c-3.7-0.2-5.1-7.1-5.1-16.4c0-2.4,0.1-4.9,0.3-7.5c10.2-7.8,16.6-24.4,16.6-34c0-4.3-1.3-7.2-4.2-7.2c-8.1,0-15.2,23.4-16.2,42.3
			c-2.4,1.3-4.9,2-7.5,2c0.5-1.3,0.7-2.6,0.7-4c0-3.6-1.9-6.8-6.6-6.8c-8.2,0-13.4,10.5-13.4,19.7c0,7,3,13.2,10.3,13.2
			c6.4,0,10-6.2,10-13.3c0-2.5-0.5-5.1-1.4-7.7c2.8,0,5.4-0.7,7.9-2c-0.1,1.1-0.1,2.1-0.1,3.1c0,10.9,2.4,19.3,8.1,19.3
			c4.2,0,6.3-4.6,8-9.9c0,0.1,0,0.1,0,0.2c0,5.7,2,10.2,6.7,10.2c5.3,0,7.2-4.5,8.7-9c0.7,4.4,1.4,9.1,5.9,9.1
			c5.5,0,14.2-14.2,14.2-14.2s7.1-10.6,16.7-12.5C148.5,54.4,148.4,54,148.3,53.7z M96.6,16.3c2.2,0,3.2,2.3,3.2,5.9
			c0,8.6-5.9,24.5-15.5,32.4C85.7,36.8,91,16.3,96.6,16.3z M71.9,59c-0.5-1.1-1.1-2.2-1.8-3.2c-0.7-0.8-1-1.6-2.1-1.6
			c-1.3,0-2.1,1.6-2.2,2.5c1.1,2.1,3.2,3.4,5.5,3.8l0.1,0.1c-0.7,1.5-1.6,2.8-2.6,3.6H69c0.7,0,0.9-0.1,1.1-0.3
			c0.6-0.6,1.2-1.3,1.7-2c0.7,1.9,1.1,4.1,1.1,6.2c0,5.9-2.6,12.1-7.7,12.1c-5.5,0-7.8-5.9-7.8-12.5c0-8.4,3.7-17.9,9.3-17.9
			c4.3,0,5.9,2.6,5.9,5.6C72.6,56.4,72.4,57.7,71.9,59z"/>
		<g>
			<path d="M37.6,79.5c-0.8,1.5-2.1,2.9-3.7,4.2c-1.7,1.3-3.4,2.3-5.3,3c-1.4,0.5-2.8,0.8-4.2,0.8c-0.5,0-1.1-0.1-1.6-0.1
				c-2-0.3-3.7-1.1-5-2.5c-0.8-1-1.3-2.3-1.3-3.7c0-1.9,0.8-3.5,2.3-4.7c1.3-1.1,3-1.7,5-1.7c0.5,0,1,0,1.5,0.1
				c2.4,0.3,5.4,1.3,8.7,2.9C35.2,78.2,36.4,78.8,37.6,79.5z"/>
			<path d="M72.9,67.8c0,5.9-2.6,12.1-7.7,12.1c-5.5,0-7.8-5.9-7.8-12.5c0-8.4,3.7-17.9,9.3-17.9c4.3,0,5.9,2.6,5.9,5.6
				c0,1.3-0.3,2.6-0.7,3.8c-0.5-1.1-1.1-2.2-1.8-3.2c-0.7-0.8-1-1.6-2.1-1.6c-1.3,0-2.1,1.6-2.2,2.5c1.1,2.1,3.2,3.4,5.5,3.8
				l0.1,0.1c-0.7,1.5-1.6,2.8-2.6,3.6H69c0.7,0,0.9-0.1,1.1-0.3c0.6-0.6,1.2-1.3,1.7-2C72.5,63.5,72.9,65.7,72.9,67.8z"/>
			<path d="M99.8,22.2c0,8.6-5.9,24.5-15.5,32.4c1.4-17.7,6.7-38.3,12.3-38.3C98.8,16.3,99.8,18.6,99.8,22.2z"/>
			<path d="M166.8,62.3c0,0-6.2-7.4-14.5-7.9c-1.2-0.1-2.3,0-3.4,0.2c-0.1,0-0.2,0-0.3,0.1c-0.1-0.3-0.2-0.7-0.3-1
				c0.1,0,0.2,0,0.3-0.1c1.5-0.2,3-0.3,4.7-0.2C162.7,54.3,166.8,62.3,166.8,62.3z"/>
			<polygon points="74.6,107.6 70.5,107.6 72.6,102.6 			"/>
			<path d="M97.8,104.6c0,1.2-0.8,2.3-2,2.3h-3.3v-4.6h3.2C96.9,102.3,97.8,103.4,97.8,104.6z"/>
			<path d="M88.7,123.5c0,2.4-1.3,4.2-3.8,4.2h-2.4v-8.3h2.4C87.4,119.4,88.7,121.1,88.7,123.5z"/>
			<path d="M148.6,54.7c-9.6,1.9-16.7,12.5-16.7,12.5s-8.7,14.2-14.2,14.2c-4.5,0-5.2-4.7-5.9-9.1c-1.5,4.5-3.4,9-8.7,9
				c-4.6,0-6.7-4.4-6.7-10.2c0-0.1,0-0.1,0-0.2c-1.7,5.3-3.8,9.9-8,9.9c-5.7,0-8.1-8.4-8.1-19.3c0-1,0-2,0.1-3.1
				c-2.5,1.3-5.1,2-7.9,2c1,2.5,1.4,5.1,1.4,7.7c0,7.1-3.6,13.3-10,13.3c-7.3,0-10.3-6.2-10.3-13.2c0-9.2,5.2-19.7,13.4-19.7
				c4.7,0,6.6,3.2,6.6,6.8c0,1.3-0.3,2.7-0.7,4c2.6-0.1,5.1-0.8,7.5-2c1-18.9,8-42.3,16.2-42.3c2.8,0,4.2,2.9,4.2,7.2
				c0,9.6-6.5,26.2-16.6,34c-0.2,2.6-0.3,5.1-0.3,7.5c0,9.2,1.4,16.2,5.1,16.4c3.8,0,6-7.5,7.7-13.1l0.2-0.7c1.7-9.7,8-20.4,17-20.4
				c2.8,0,4.4,2.2,4.4,4.9c0,3-2,6.5-6.5,7.6c-0.5,0-0.7-0.1-0.7-0.3c0-0.1,0.1-0.3,0.3-0.6c3.5-0.8,5.7-4.4,5.7-7.2
				c0-2-1.1-3.6-3.7-3.6c-8,0-13.6,15.2-13.6,25.1c0,4.8,1.3,8.4,4.4,8.4c4.5,0,6.9-7.7,7.6-11.5c0.4-1.3,0.9-7.9,1.3-8.4
				c0.7-0.7,2.8-1.4,3.8-1.4c0.5,0,0.7,0.2,0.7,0.5c0,0.8-1,2.2-1.2,2.6c-1,2-1.1,7.6-1.1,11.9c0,2.7,0.3,6.7,3.1,6.7
				c3.8,0,12.7-13.6,12.7-13.6s6.5-11.1,17.3-13.1c-9.5-30.9-38.2-53.3-72.2-53.3C34.4,0.4,0.6,34.2,0.6,76
				c0,41.7,33.8,75.5,75.5,75.5c41.7,0,75.5-33.8,75.5-75.5C151.6,68.6,150.6,61.4,148.6,54.7z M42.7,128.6c-1.6,0-2.9-0.5-4-1.5
				l0.5-0.8c0.7,0.8,2,1.4,3.6,1.4c1.6,0,2.6-0.6,2.6-1.7c0-1.2-1-1.6-3-2.1c-2.1-0.5-3.2-1-3.2-2.6c0-1.9,1.5-2.9,3.6-2.9
				c1.3,0,2.4,0.4,3.2,1.2l-0.5,0.8c-0.6-0.6-1.6-1.1-2.8-1.1c-1.8,0-2.6,0.7-2.6,1.9c0,1.2,0.9,1.5,2.8,1.9c2.1,0.5,3.5,1,3.5,2.8
				C46.3,127.8,44.8,128.6,42.7,128.6z M41.4,81.6c-0.4-0.3-1-0.7-1.8-1.1c-2.2,3.4-5,5.8-8.5,7.2C29,88.5,27,88.9,25,88.9
				c-1.2,0-2.4-0.2-3.5-0.5c-2-0.5-3.6-1.5-4.7-2.9c-1-1.2-1.5-2.7-1.5-4.4c0-1.1,0.2-2.1,0.7-3.1c0.5-1,1.1-1.8,2-2.5
				c1.6-1.3,3.5-1.9,5.7-1.9c0.5,0,1.1,0,1.7,0.1c2.4,0.3,5.4,1.3,9,2.9c0.6,0.3,1.3,0.6,2,1c0.7,0.4,1.3,0.7,1.8,0.9
				c0.7-1.2,1.3-2.8,1.7-4.8c0.4-2.1,0.7-4.3,0.8-6.8c0.1-2.4,0.3-5.1,0.3-7.9c0.1-2.8,0.2-5.8,0.4-8.8c0.2-3.1,0.4-6.2,0.7-9.3
				c0.3-3.1,0.9-6.1,1.6-9c0.8-2.9,1.7-5.6,2.9-8c1.2-2.5,2.7-4.7,4.7-6.7c1.9-2,4.2-3.6,6.8-4.8c1.8-1,3.6-1.7,5.5-1.9
				c0.4,0,0.7-0.1,1.1-0.1c1.5,0,3,0.4,4.5,1.1c2.4,1.2,3.9,3.3,4.6,6.2c0.4,1.4,0.6,2.8,0.6,4.1V22c0,1.2-0.1,2.2-0.3,3.1
				c-0.3,1-0.6,1.9-1.1,2.7c-0.4,0.8-0.9,1.5-1.5,2c-0.6,0.5-1.1,0.9-1.7,1.3c-0.6,0.4-1.2,0.5-1.7,0.5c-0.6,0-1.1-0.1-1.5-0.2
				c-0.6-0.2-1-0.8-1.4-1.8c-0.4-1-0.3-1.5,0.2-1.7c0.2,0,0.4,0,0.8,0.1c0.4,0.2,0.8,0.3,1.3,0.3c0.4,0,0.8,0,1.2-0.2
				c1-0.3,1.8-0.8,2.6-1.6c0.9-0.9,1.4-2,1.8-3.5c0.1-0.6,0.2-1.2,0.2-1.9c0-1-0.1-2.2-0.4-3.4c-0.6-2.6-1.9-4.4-4-5.5
				c-1-0.5-2.1-0.8-3.3-0.9c-0.2,0-0.4,0-0.6,0c-1,0-1.9,0.1-2.9,0.4c-1.1,0.3-2.2,0.8-3.2,1.5c-4,2.3-6.9,6.3-8.7,11.8
				c-1,3.1-1.7,7.8-2.2,14.2c-0.5,6.4-0.8,10.6-1,12.5c-0.1,1.9-0.4,4.6-0.6,8.2c-0.3,3.6-0.9,7.1-1.9,10.6c-1,3.5-2.4,6.4-4.2,8.8
				c0,0,0.1,0.1,0.4,0.3c0.3,0.2,0.5,0.3,0.8,0.5c0.3,0.2,0.5,0.3,0.6,0.3c1.4,0.8,2.6,1.6,3.8,2.2c1.1,0.6,2.4,1.3,3.9,2.1
				c1.4,0.7,2.8,1.4,4.1,2c1.3,0.6,2.6,1.1,4.1,1.7c1.5,0.5,2.9,1,4.3,1.3c1.4,0.3,2.8,0.6,4.3,0.8c1.3,0.2,2.5,0.3,3.8,0.3h0.6
				c1.5,0,2.9-0.2,4.4-0.4c1.9-0.3,3.4-1,4.5-2.1c1.1-1.1,1.9-2.6,2.4-4.6c0.3-0.5,0.8-0.5,1.6,0.2c0.9,0.8,1.5,1.8,1.7,3.1
				c0,0.3,0.1,0.5,0.1,0.8c0,1.7-1,3-2.9,4c-1.7,0.8-4.2,1.3-7.3,1.4h-1.1c-2.2,0-4.4-0.2-6.6-0.5c-2.5-0.4-4.8-0.9-6.8-1.6
				c-2-0.6-4.3-1.5-6.8-2.7c-2.5-1.2-4.6-2.2-6.3-3.2C46.1,84.4,43.9,83.2,41.4,81.6z M84.3,101.5v10.1h-1v-10.1H84.3z M59.9,119.4
				h-3.6v9.2h-1v-9.2h-3.6v-0.9h8.2V119.4z M61.8,111.5h-1v-4.7h-6v4.7h-1v-10.1h1v4.5h6v-4.5h1V111.5z M74.4,123.6
				c0,2.7-1.1,5.1-4.2,5.1c-3.2,0-4.2-2.5-4.2-5.1v-5.1h1v5.1c0,2.1,0.8,4.2,3.2,4.2c2.6,0,3.3-2.1,3.3-4.2v-5.1h1V123.6z
				 M76.1,111.5l-1.3-3.1h-4.5l-1.3,3.1h-1l4.2-10.1H73l4.2,10.1H76.1z M84.9,128.6h-3.4v-10.1h3.4c3.2,0,4.8,2.2,4.8,5
				C89.7,126.6,87.9,128.6,84.9,128.6z M97.3,128.6h-1v-10.1h1V128.6z M97.9,111.5l-2.4-3.7h-3v3.7h-1v-10.1h4.2c1.7,0,3,1.6,3,3.2
				c0,1.5-0.9,2.7-2.3,3l2.5,3.9H97.9z M108.7,128.6c-2.8,0-4.7-2.5-4.7-5.1c0-2.7,2-5.1,4.7-5.1c2.8,0,4.7,2.6,4.7,5.1
				C113.4,126.2,111.4,128.6,108.7,128.6z"/>
			<path class="st0" d="M96.5,107.6c1.3-0.3,2.3-1.6,2.3-3c0-1.6-1.2-3.2-3-3.2h-4.2v10.1h1v-3.7h3l2.4,3.7H99L96.5,107.6z
				 M92.5,106.9v-4.6h3.2c1.1,0,2,1.1,2,2.3c0,1.2-0.8,2.3-2,2.3H92.5z"/>
			<path class="st0" d="M73,101.5h-0.8L68,111.5h1l1.3-3.1h4.5l1.3,3.1h1.1L73,101.5z M70.5,107.6l2.1-5l2,5H70.5z"/>
			<path class="st0" d="M108.7,118.4c-2.7,0-4.7,2.4-4.7,5.1c0,2.6,1.9,5.1,4.7,5.1c2.7,0,4.7-2.4,4.7-5.1
				C113.4,121,111.5,118.4,108.7,118.4z M108.7,127.7c-2.2,0-3.7-2-3.7-4.2c0-2.1,1.4-4.2,3.7-4.2c2.2,0,3.7,2,3.7,4.2
				C112.4,125.6,111,127.7,108.7,127.7z"/>
			<rect x="96.4" y="118.5" class="st0" width="1" height="10.1"/>
			<path class="st0" d="M84.9,118.5h-3.4v10.1h3.4c2.9,0,4.8-2,4.8-5C89.7,120.7,88.1,118.5,84.9,118.5z M84.9,127.7h-2.4v-8.3h2.4
				c2.5,0,3.8,1.7,3.8,4.1C88.7,125.9,87.4,127.7,84.9,127.7z"/>
			<path class="st0" d="M74.4,118.5v5.1c0,2.7-1.1,5.1-4.2,5.1c-3.2,0-4.2-2.5-4.2-5.1v-5.1h1v5.1c0,2.1,0.8,4.2,3.2,4.2
				c2.6,0,3.3-2.1,3.3-4.2v-5.1H74.4z"/>
			<polygon class="st0" points="59.9,118.5 59.9,119.4 56.3,119.4 56.3,128.6 55.3,128.6 55.3,119.4 51.7,119.4 51.7,118.5 			"/>
			<path class="st0" d="M46.3,125.9c0,1.9-1.5,2.7-3.6,2.7c-1.6,0-2.9-0.5-4-1.5l0.5-0.8c0.7,0.8,2,1.4,3.6,1.4
				c1.6,0,2.6-0.6,2.6-1.7c0-1.2-1-1.6-3-2.1c-2.1-0.5-3.2-1-3.2-2.6c0-1.9,1.5-2.9,3.6-2.9c1.3,0,2.4,0.4,3.2,1.2l-0.5,0.8
				c-0.6-0.6-1.6-1.1-2.8-1.1c-1.8,0-2.6,0.7-2.6,1.9c0,1.2,0.9,1.5,2.8,1.9C45,123.6,46.3,124.1,46.3,125.9z"/>
			<rect x="83.3" y="101.5" class="st0" width="1" height="10.1"/>
			<polygon class="st0" points="61.8,101.5 61.8,111.5 60.8,111.5 60.8,106.8 54.8,106.8 54.8,111.5 53.9,111.5 53.9,101.5 
				54.8,101.5 54.8,105.9 60.8,105.9 60.8,101.5 			"/>
			<path class="st0" d="M85.4,87.2c-0.2-1.3-0.8-2.3-1.7-3.1c-0.7-0.6-1.3-0.7-1.6-0.2c-0.5,2-1.3,3.5-2.4,4.6
				c-1.1,1.1-2.6,1.7-4.5,2.1c-1.5,0.2-2.9,0.4-4.4,0.4h-0.6c-1.3,0-2.6-0.1-3.8-0.3c-1.4-0.2-2.9-0.5-4.3-0.8
				c-1.4-0.3-2.8-0.8-4.3-1.3c-1.5-0.5-2.8-1.1-4.1-1.7c-1.3-0.6-2.6-1.2-4.1-2c-1.4-0.8-2.7-1.5-3.9-2.1c-1.1-0.6-2.4-1.4-3.8-2.2
				c-0.1,0-0.3-0.2-0.6-0.3c-0.3-0.2-0.6-0.3-0.8-0.5c-0.3-0.2-0.4-0.3-0.4-0.3c1.8-2.4,3.2-5.3,4.2-8.8c1-3.5,1.6-7,1.9-10.6
				c0.3-3.6,0.5-6.3,0.6-8.2c0.1-1.9,0.5-6.1,1-12.5c0.5-6.4,1.2-11.2,2.2-14.2c1.8-5.6,4.7-9.5,8.7-11.8c1-0.7,2.1-1.1,3.2-1.5
				c0.9-0.3,1.9-0.4,2.9-0.4c0.2,0,0.4,0,0.6,0c1.2,0.1,2.3,0.4,3.3,0.9c2.1,1.1,3.4,2.9,4,5.5c0.3,1.3,0.4,2.4,0.4,3.4
				c0,0.7,0,1.3-0.2,1.9c-0.3,1.4-0.9,2.6-1.8,3.5c-0.8,0.8-1.7,1.4-2.6,1.6c-0.4,0.1-0.8,0.2-1.2,0.2c-0.5,0-0.9-0.1-1.3-0.3
				c-0.3-0.1-0.6-0.2-0.8-0.1c-0.5,0.1-0.6,0.7-0.2,1.7c0.4,0.9,0.8,1.5,1.4,1.8c0.4,0.1,0.9,0.2,1.5,0.2c0.6,0,1.1-0.2,1.7-0.5
				c0.6-0.4,1.2-0.8,1.7-1.3c0.6-0.5,1.1-1.2,1.5-2c0.4-0.8,0.8-1.7,1.1-2.7c0.2-0.9,0.3-1.9,0.3-3.1v-0.3c0-1.3-0.2-2.7-0.6-4.1
				c-0.7-2.9-2.2-4.9-4.6-6.2c-1.5-0.7-3-1.1-4.5-1.1c-0.4,0-0.8,0.1-1.1,0.1c-1.9,0.2-3.7,0.9-5.5,1.9c-2.6,1.2-4.9,2.8-6.8,4.8
				c-1.9,2-3.5,4.3-4.7,6.7c-1.2,2.5-2.1,5.2-2.9,8c-0.8,2.9-1.3,5.9-1.6,9c-0.3,3.1-0.6,6.2-0.7,9.3c-0.2,3.1-0.3,6-0.4,8.8
				c-0.1,2.8-0.2,5.4-0.3,7.9c-0.1,2.4-0.4,4.7-0.8,6.8c-0.4,2.1-1,3.7-1.7,4.8c-0.5-0.2-1.1-0.5-1.8-0.9c-0.7-0.4-1.4-0.7-2-1
				c-3.6-1.6-6.6-2.6-9-2.9c-0.6-0.1-1.1-0.1-1.7-0.1c-2.2,0-4.1,0.7-5.7,1.9c-0.8,0.7-1.5,1.5-2,2.5c-0.5,1-0.7,2-0.7,3.1
				c0,1.7,0.5,3.1,1.5,4.4c1.2,1.4,2.7,2.4,4.7,2.9c1.2,0.3,2.3,0.5,3.5,0.5c1.9,0,4-0.4,6.1-1.3c3.4-1.4,6.3-3.8,8.5-7.2
				c0.8,0.4,1.4,0.8,1.8,1.1c2.6,1.5,4.7,2.8,6.4,3.8c1.7,1,3.8,2,6.3,3.2c2.5,1.2,4.7,2.1,6.8,2.7c2,0.6,4.3,1.2,6.8,1.6
				c2.2,0.3,4.3,0.5,6.6,0.5h1.1c3.1-0.1,5.6-0.6,7.3-1.4c1.9-1,2.9-2.3,2.9-4C85.5,87.7,85.5,87.4,85.4,87.2z M33.9,83.6
				c-1.7,1.3-3.4,2.3-5.3,3c-1.4,0.5-2.8,0.8-4.2,0.8c-0.5,0-1.1-0.1-1.6-0.1c-2-0.3-3.7-1.1-5-2.5c-0.8-1-1.3-2.3-1.3-3.7
				c0-1.9,0.8-3.5,2.3-4.7c1.3-1.1,3-1.7,5-1.7c0.5,0,1,0,1.5,0.1c2.4,0.3,5.4,1.3,8.7,2.9c1.2,0.5,2.4,1.1,3.6,1.8
				C36.8,81,35.5,82.4,33.9,83.6z"/>
			<path d="M112.4,123.5c0,2.1-1.4,4.2-3.7,4.2c-2.2,0-3.7-2-3.7-4.2c0-2.1,1.4-4.2,3.7-4.2C110.9,119.3,112.4,121.3,112.4,123.5z"
				/>
		</g>
	</g>
</g>
<g id="Layer_2">
</g>
<g id="Layer_3">
</g>
<g id="Layer_4">
</g>
<g id="Layer_5">
</g>
<g id="Layer_6">
</g>
</svg>
